<?xml version="1.0" standalone="no"?>
<!DOCTYPE svg PUBLIC "-//W3C//DTD SVG 20010904//EN"
 "http://www.w3.org/TR/2001/REC-SVG-20010904/DTD/svg10.dtd">
<svg version="1.0" xmlns="http://www.w3.org/2000/svg"
 width="1010.000000pt" height="160.000000pt" viewBox="0 0 1010.000000 160.000000"
 preserveAspectRatio="xMidYMid meet">

<g transform="translate(0.000000,160.000000) scale(0.100000,-0.100000)"
fill="#000000" stroke="none">
<path d="M281 1578 c-5 -13 -70 -285 -145 -604 l-137 -582 158 -196 157 -196
1247 0 1246 0 6 48 c4 26 9 80 13 120 4 39 10 72 14 72 4 0 27 -54 50 -120
l42 -120 1998 0 1997 0 59 198 59 197 -17 185 c-9 102 -17 204 -17 228 l-1 42
45 0 c25 0 45 -3 45 -7 -1 -19 72 -800 76 -821 l4 -22 248 0 247 0 84 196 84
197 -27 216 c-31 251 -30 241 -12 241 9 0 17 -24 24 -82 6 -46 30 -237 54
-425 l43 -343 500 0 500 1 90 144 c50 80 93 145 97 145 7 0 16 -42 44 -198
l17 -92 251 1 251 0 125 166 c69 91 135 180 147 197 l22 31 -29 130 c-16 72
-30 138 -30 147 0 16 127 203 173 255 14 16 17 29 12 55 -11 53 -125 539 -136
581 l-10 37 -3514 0 -3513 0 -6 -37 c-3 -21 -8 -69 -12 -106 -6 -61 -9 -68
-27 -65 -16 2 -26 23 -51 106 l-30 102 -1253 0 -1253 0 -9 -22z m948 -80 c0
-7 -8 -53 -18 -103 l-17 -90 -255 -5 -254 -5 -10 -50 -11 -50 -187 -3 c-113
-1 -187 1 -187 7 0 10 57 263 66 294 5 16 35 17 440 17 341 0 434 -3 433 -12z
m1001 -5 c0 -21 -108 -798 -115 -830 -5 -23 -6 -23 -196 -23 l-191 0 7 60 7
60 -66 0 -65 0 -6 -32 c-3 -18 -16 -94 -28 -168 l-23 -135 -195 -3 -195 -2 31
172 c18 95 40 217 50 271 l17 97 64 0 c36 0 64 4 64 10 0 6 -27 10 -60 10 -43
0 -60 4 -60 13 0 7 20 124 45 259 25 136 45 249 45 252 0 3 196 6 435 6 403 0
435 -1 435 -17z m496 -68 l-9 -85 -64 0 c-35 0 -63 -4 -63 -10 0 -6 27 -10 60
-10 33 0 60 -4 60 -10 0 -6 29 -10 66 -10 64 0 66 -1 61 -22 -3 -13 -9 -60
-13 -106 l-7 -83 64 3 64 3 6 45 c4 25 10 75 14 113 l7 67 184 0 184 0 0 -42
c0 -24 -16 -223 -35 -443 -19 -220 -35 -403 -35 -407 0 -5 -88 -8 -196 -8
l-196 0 6 53 c3 28 11 100 17 159 l12 108 128 0 c79 0 129 4 129 10 0 6 -71
10 -193 10 l-193 0 7 68 c4 37 10 86 13 110 l6 42 -69 0 -68 0 -7 -72 c-4 -40
-10 -90 -13 -110 l-6 -38 -188 0 c-173 0 -189 1 -189 18 0 9 21 178 47 375
l47 357 186 0 185 0 -9 -85z m634 61 c0 -12 -3 -51 -6 -85 l-7 -61 -189 0
-189 0 6 53 c3 28 8 67 11 85 l5 32 184 0 185 0 0 -24z m1002 -81 l-3 -105
-254 0 -253 0 -7 -101 c-4 -55 -5 -102 -2 -105 2 -2 118 -5 257 -5 l253 0 -6
-112 c-4 -62 -10 -212 -13 -335 l-7 -222 -461 2 c-346 2 -460 6 -459 15 1 6 6
55 9 107 l7 96 258 0 c161 0 260 4 264 10 3 6 42 10 85 10 43 0 82 5 85 10 4
6 -25 10 -81 10 l-86 0 3 93 4 92 -259 3 -258 2 5 33 c3 17 8 77 12 132 3 55
8 133 11 173 l6 72 124 0 c76 0 124 4 124 10 0 6 -48 10 -125 10 l-126 0 5 48
c3 26 8 73 11 105 l6 57 437 0 437 0 -3 -105z m1010 -182 c2 -159 3 -353 3
-433 l0 -145 -192 -3 -193 -2 0 60 0 60 -65 0 -65 0 0 -72 c0 -40 -3 -117 -7
-171 l-6 -97 -191 0 -192 0 3 248 c2 136 6 257 9 270 4 20 10 22 64 22 33 0
60 4 60 10 0 6 -27 10 -62 10 l-63 0 8 252 c4 139 9 259 12 266 3 9 101 12
440 12 l435 0 2 -287z m1001 220 c4 -38 9 -122 12 -188 3 -66 8 -130 11 -142
4 -22 2 -23 -61 -23 l-65 0 0 -55 0 -55 65 0 c59 0 65 -2 65 -21 0 -25 31
-509 33 -524 1 -6 -64 -11 -194 -13 l-196 -2 -6 105 c-3 59 -3 113 0 121 4 10
22 14 64 14 33 0 59 4 59 10 0 6 -28 10 -65 10 l-65 0 0 49 c0 26 -3 69 -6 95
l-7 46 -64 0 -65 0 3 -92 3 -93 -82 -3 c-109 -4 -106 -22 3 -22 l85 0 0 -104
c0 -57 3 -111 6 -120 5 -14 -16 -16 -195 -16 l-201 0 0 153 c0 85 -3 262 -7
395 l-6 242 61 0 c33 0 64 5 67 10 4 6 -18 10 -59 10 l-66 0 0 79 c0 43 -3
106 -6 139 l-7 61 440 1 440 0 6 -67z m501 25 c3 -24 7 -62 10 -85 l4 -43 -84
0 c-49 0 -84 -4 -84 -10 0 -6 33 -10 80 -10 75 0 80 -1 84 -22 3 -13 19 -192
36 -398 17 -206 33 -399 36 -427 l6 -53 -195 0 -195 0 -7 73 c-10 115 -65 949
-65 985 l0 32 184 0 185 0 5 -42z m1000 14 c2 -15 7 -49 11 -77 3 -27 8 -63
11 -78 l6 -28 -124 2 c-116 2 -123 1 -126 -17 -2 -11 11 -131 28 -267 16 -136
30 -250 30 -253 0 -2 -87 -3 -192 -2 l-193 3 -27 255 c-14 140 -27 261 -27
268 -1 9 -33 12 -125 12 -144 0 -131 -11 -141 123 l-7 87 435 0 436 -1 5 -27z
m501 3 c3 -14 7 -36 10 -50 l5 -25 -190 0 -190 0 0 28 c0 15 -3 37 -6 50 l-6
22 186 0 186 0 5 -25z m561 -320 c34 -187 65 -355 67 -372 l6 -33 -193 0 -194
0 -7 55 -6 55 -69 0 c-51 0 -68 -3 -66 -12 3 -7 7 -32 10 -55 l6 -43 -125 0
c-77 0 -125 -4 -125 -10 0 -6 48 -10 125 -10 121 0 125 -1 130 -22 6 -29 45
-274 45 -288 0 -6 -69 -10 -193 -10 l-194 0 -67 478 c-36 262 -66 480 -66 485
0 4 83 7 184 7 l184 0 6 -27 c3 -16 13 -75 21 -133 23 -151 16 -140 91 -140
35 0 64 3 64 8 0 4 -11 69 -24 144 -12 76 -21 140 -18 143 3 3 29 5 59 5 29 0
53 5 53 10 0 6 -27 10 -60 10 -65 0 -65 0 -74 63 l-5 37 186 -2 186 -3 63
-340z m458 253 c9 -51 24 -123 32 -160 l16 -68 64 0 c35 0 64 4 64 10 0 5 -9
48 -20 95 -11 47 -20 92 -20 100 0 13 29 15 180 15 178 0 181 0 190 -22 6 -13
30 -110 54 -215 l43 -193 -129 0 c-118 0 -129 -1 -124 -17 2 -10 21 -94 41
-188 20 -93 39 -178 41 -187 5 -16 -4 -18 -90 -18 -126 0 -125 -18 1 -22 108
-3 99 3 117 -90 l7 -38 -194 0 -194 0 -52 263 c-29 144 -54 270 -57 280 -5 15
-20 17 -133 17 l-128 0 -17 89 c-9 49 -16 94 -16 100 0 7 44 12 123 14 l122 3
-126 2 -126 2 -7 38 c-3 20 -17 92 -30 160 l-23 122 186 0 187 0 18 -92z m490
61 c12 -62 22 -59 -178 -59 l-183 0 -7 31 c-12 62 -22 59 178 59 l184 0 6 -31z
m-9229 -321 c-18 -80 -105 -495 -105 -505 0 -10 62 -13 258 -15 l258 -3 -20
-107 -19 -108 -459 0 c-252 0 -458 2 -458 4 0 13 69 297 75 305 3 6 33 11 66
11 33 0 59 4 59 10 0 6 -27 10 -60 10 -33 0 -60 2 -60 5 0 15 82 373 90 393 9
22 12 22 195 22 l185 0 -5 -22z m484 -350 c-4 -24 -8 -49 -9 -55 0 -9 -24 -13
-86 -13 l-85 0 7 48 c3 26 8 50 11 55 2 4 42 7 87 7 l83 0 -8 -42z m1501 -100
c0 -18 -7 -87 -15 -153 -8 -65 -15 -123 -15 -127 0 -4 -88 -8 -195 -8 -107 0
-195 1 -195 3 0 1 9 69 20 151 11 81 20 152 20 157 0 5 85 9 190 9 l190 0 0
-32z m5075 10 c4 -21 35 -274 35 -291 0 -4 -88 -7 -195 -7 -149 0 -195 3 -195
13 0 6 -7 70 -15 142 -8 72 -15 138 -15 148 0 16 16 17 190 17 189 0 190 0
195 -22z m1299 5 c4 -16 56 -291 56 -300 0 -1 -88 -3 -195 -3 -107 0 -195 3
-195 8 0 4 -11 72 -25 152 -14 80 -25 148 -25 153 0 4 85 7 189 7 172 0 190
-2 195 -17z m-6904 -109 c0 -10 -21 -149 -26 -171 -4 -23 -5 -23 -200 -23
-181 0 -195 1 -190 18 3 9 10 54 17 100 l11 82 194 0 c107 0 194 -3 194 -6z
m3264 -55 c3 -34 6 -79 6 -100 l0 -39 -195 0 -195 0 0 100 0 100 189 0 188 0
7 -61z"/>
<path d="M1536 1273 c-3 -16 -8 -45 -12 -65 l-6 -38 61 0 c58 0 61 -1 61 -24
0 -21 -6 -25 -32 -28 -32 -3 -33 -6 -45 -63 -7 -33 -15 -84 -19 -113 l-6 -53
48 3 c49 3 49 3 58 46 l9 42 60 0 60 0 -6 -45 -7 -45 50 0 c57 0 52 -9 73 133
8 48 11 89 9 92 -3 3 -17 5 -32 5 -24 0 -27 3 -22 25 4 24 8 25 68 25 l63 0 6
48 c4 26 9 55 12 65 4 15 -5 17 -81 17 l-84 0 -7 -65 -7 -65 -65 0 c-57 0 -64
2 -59 18 3 9 8 38 12 65 l6 47 -80 0 c-80 0 -80 0 -86 -27z"/>
<path d="M1400 520 c0 -5 6 -10 14 -10 8 0 18 5 21 10 3 6 -3 10 -14 10 -12 0
-21 -4 -21 -10z"/>
<path d="M4706 1263 c-3 -21 -6 -50 -6 -65 0 -28 1 -28 65 -28 63 0 65 -1 65
-25 0 -21 -5 -25 -29 -25 -27 0 -28 -2 -35 -61 -3 -34 -6 -86 -6 -115 l0 -54
49 0 50 0 3 43 3 42 60 0 60 0 3 -42 3 -43 50 0 50 0 -3 113 -3 112 -33 3
c-28 3 -33 7 -30 25 3 20 10 22 66 25 l62 3 0 64 0 65 -80 0 -80 0 0 -65 0
-65 -65 0 -65 0 0 65 0 65 -74 0 -73 0 -7 -37z"/>
<path d="M4680 520 c0 -5 9 -10 20 -10 11 0 20 5 20 10 0 6 -9 10 -20 10 -11
0 -20 -4 -20 -10z"/>
<path d="M5880 1195 l0 -105 65 0 65 0 0 83 c0 125 -1 127 -71 127 l-59 0 0
-105z"/>
<path d="M5675 1110 c3 -5 21 -10 40 -10 19 0 37 5 40 10 4 6 -12 10 -40 10
-28 0 -44 -4 -40 -10z"/>
<path d="M6690 630 c0 -5 6 -10 14 -10 8 0 18 5 21 10 3 6 -3 10 -14 10 -12 0
-21 -4 -21 -10z"/>
<path d="M530 520 c0 -5 6 -10 14 -10 8 0 18 5 21 10 3 6 -3 10 -14 10 -12 0
-21 -4 -21 -10z"/>
<path d="M2360 520 c0 -5 9 -10 20 -10 11 0 20 5 20 10 0 6 -9 10 -20 10 -11
0 -20 -4 -20 -10z"/>
</g>
</svg>
